<?xml version="1.0" standalone="no"?><svg xmlns="http://www.w3.org/2000/svg" viewBox="0 0 1440 320"><path fill="#a2d9ff" fill-opacity="1" d="M0,0L10.9,5.3C21.8,11,44,21,65,48C87.3,75,109,117,131,144C152.7,171,175,181,196,160C218.2,139,240,85,262,69.3C283.6,53,305,75,327,90.7C349.1,107,371,117,393,106.7C414.5,96,436,64,458,69.3C480,75,502,117,524,160C545.5,203,567,245,589,250.7C610.9,256,633,224,655,186.7C676.4,149,698,107,720,90.7C741.8,75,764,85,785,80C807.3,75,829,53,851,69.3C872.7,85,895,139,916,144C938.2,149,960,107,982,112C1003.6,117,1025,171,1047,165.3C1069.1,160,1091,96,1113,85.3C1134.5,75,1156,117,1178,122.7C1200,128,1222,96,1244,106.7C1265.5,117,1287,171,1309,176C1330.9,181,1353,139,1375,117.3C1396.4,96,1418,96,1429,96L1440,96L1440,320L1429.1,320C1418.2,320,1396,320,1375,320C1352.7,320,1331,320,1309,320C1287.3,320,1265,320,1244,320C1221.8,320,1200,320,1178,320C1156.4,320,1135,320,1113,320C1090.9,320,1069,320,1047,320C1025.5,320,1004,320,982,320C960,320,938,320,916,320C894.5,320,873,320,851,320C829.1,320,807,320,785,320C763.6,320,742,320,720,320C698.2,320,676,320,655,320C632.7,320,611,320,589,320C567.3,320,545,320,524,320C501.8,320,480,320,458,320C436.4,320,415,320,393,320C370.9,320,349,320,327,320C305.5,320,284,320,262,320C240,320,218,320,196,320C174.5,320,153,320,131,320C109.1,320,87,320,65,320C43.6,320,22,320,11,320L0,320Z"></path></svg>